<?xml version="1.0" standalone="no"?>
<!DOCTYPE svg PUBLIC "-//W3C//DTD SVG 20010904//EN"
 "http://www.w3.org/TR/2001/REC-SVG-20010904/DTD/svg10.dtd">
<svg version="1.0" xmlns="http://www.w3.org/2000/svg"
 width="450.000000pt" height="450.000000pt" viewBox="0 0 450.000000 450.000000"
 preserveAspectRatio="xMidYMid meet">
<metadata>
Created by potrace 1.10, written by Peter Selinger 2001-2011
</metadata>
<g transform="translate(0.000000,450.000000) scale(0.100000,-0.100000)"
fill="#c53030" stroke="none">
<path d="M2230 3530 c0 -25 4 -30 24 -30 19 0 25 6 28 30 4 27 2 30 -24 30
-24 0 -28 -4 -28 -30z m38 -8 c2 -7 -3 -12 -10 -12 -8 0 -15 7 -15 15 0 18 19
15 25 -3z"/>
<path d="M2502 3535 c0 -16 2 -22 5 -12 2 9 2 23 0 30 -3 6 -5 -1 -5 -18z"/>
<path d="M2852 3530 c0 -19 2 -27 5 -17 2 9 2 25 0 35 -3 9 -5 1 -5 -18z"/>
<path d="M2990 3530 c0 -16 5 -30 10 -30 6 0 10 14 10 30 0 17 -4 30 -10 30
-5 0 -10 -13 -10 -30z"/>
<path d="M1612 3525 c0 -16 2 -22 5 -12 2 9 2 23 0 30 -3 6 -5 -1 -5 -18z"/>
<path d="M1798 3525 c2 -14 6 -25 8 -25 2 0 4 11 4 25 0 14 -4 25 -9 25 -4 0
-6 -11 -3 -25z"/>
<path d="M1607 3383 c-11 -10 -8 -63 3 -63 6 0 10 16 10 35 0 36 -2 40 -13 28z"/>
<path d="M1190 3350 c0 -28 3 -30 35 -30 32 0 35 2 35 30 0 28 -3 30 -35 30
-32 0 -35 -2 -35 -30z m50 -7 c0 -7 -7 -13 -15 -13 -8 0 -15 6 -15 13 0 8 7
14 15 14 8 0 15 -6 15 -14z"/>
<path d="M1389 3368 c0 -7 -2 -21 -4 -30 -2 -14 4 -18 26 -18 26 0 29 4 29 30
0 25 -4 30 -25 30 -14 0 -25 -6 -26 -12z m34 -22 c4 -10 1 -13 -8 -9 -8 3 -12
9 -9 14 7 12 11 11 17 -5z"/>
<path d="M1782 3350 c1 -25 5 -30 25 -30 19 0 23 5 23 30 0 25 -4 30 -24 30
-21 0 -25 -5 -24 -30z"/>
<path d="M2230 3351 c0 -23 5 -30 25 -33 23 -5 25 -2 25 28 0 30 -3 34 -25 34
-21 0 -25 -5 -25 -29z"/>
<path d="M2470 3347 c0 -29 3 -33 23 -32 17 1 23 9 25 33 3 28 0 32 -22 32
-23 0 -26 -4 -26 -33z"/>
<path d="M2802 3353 c2 -23 9 -29 33 -31 27 -3 30 0 30 28 0 27 -3 30 -33 30
-30 0 -33 -2 -30 -27z m48 -8 c0 -9 -6 -12 -15 -9 -8 4 -15 10 -15 15 0 5 7 9
15 9 8 0 15 -7 15 -15z"/>
<path d="M2973 3350 c0 -24 5 -30 23 -30 17 0 23 7 26 30 4 27 2 30 -22 30
-23 0 -27 -4 -27 -30z"/>
<path d="M3170 3358 c0 -19 2 -20 10 -8 8 13 10 12 10 -2 0 -10 -4 -18 -10
-18 -5 0 -10 -4 -10 -10 0 -5 7 -10 15 -10 10 0 15 11 15 35 0 24 -5 35 -15
35 -9 0 -15 -9 -15 -22z"/>
<path d="M3330 3351 c0 -24 5 -29 30 -33 28 -4 30 -3 30 29 0 30 -3 33 -30 33
-26 0 -30 -3 -30 -29z m40 -7 c0 -8 -7 -14 -15 -14 -15 0 -21 21 -9 33 10 9
24 -2 24 -19z"/>
<path d="M1997 3340 c-3 -11 -1 -20 4 -20 5 0 9 9 9 20 0 11 -2 20 -4 20 -2 0
-6 -9 -9 -20z"/>
<path d="M2681 3324 c0 -11 3 -14 6 -6 3 7 2 16 -1 19 -3 4 -6 -2 -5 -13z"/>
<path d="M1824 3210 c1 -21 6 -30 18 -30 9 0 20 -5 24 -11 4 -8 -8 -10 -40 -8
-25 2 -46 3 -46 2 0 -13 39 -33 65 -33 31 0 35 3 39 33 10 70 7 77 -28 77 -30
0 -33 -3 -32 -30z m40 -11 c-3 -5 -10 -7 -15 -3 -5 3 -7 10 -3 15 3 5 10 7 15
3 5 -3 7 -10 3 -15z"/>
<path d="M2060 3188 c0 -29 -3 -63 -6 -75 -5 -19 -2 -23 16 -23 18 0 21 4 16
23 -3 12 -6 46 -6 75 0 28 -4 52 -10 52 -5 0 -10 -24 -10 -52z"/>
<path d="M2230 3170 l0 -70 29 0 28 0 2 70 c1 42 -3 70 -9 70 -5 0 -10 -23
-10 -51 0 -36 -4 -49 -12 -46 -8 2 -13 22 -13 50 0 26 -3 47 -7 47 -5 0 -8
-31 -8 -70z"/>
<path d="M2422 3183 c-6 -32 -13 -66 -17 -75 -6 -15 -2 -18 24 -18 31 0 32 1
30 43 -1 23 -6 47 -11 54 -6 7 -7 21 -3 33 3 11 2 20 -3 20 -6 0 -14 -26 -20
-57z"/>
<path d="M2620 3171 c0 -60 2 -69 20 -74 16 -4 20 0 20 18 0 13 -5 25 -11 27
-6 2 -11 25 -11 51 0 26 -4 47 -9 47 -5 0 -9 -31 -9 -69z"/>
<path d="M2800 3170 c0 -54 3 -70 14 -70 8 0 21 -3 30 -6 12 -5 16 0 16 21 0
19 -4 26 -14 22 -18 -7 -26 13 -26 64 0 21 -4 39 -10 39 -6 0 -10 -30 -10 -70z"/>
<path d="M2970 3171 c0 -65 1 -69 25 -73 29 -6 34 14 10 38 -8 9 -15 20 -15
26 0 5 7 8 15 4 12 -4 15 3 15 34 0 36 -3 40 -25 40 -24 0 -25 -2 -25 -69z"/>
<path d="M2012 3175 c0 -19 4 -35 9 -35 5 0 9 16 9 35 0 19 -4 35 -9 35 -5 0
-9 -16 -9 -35z"/>
<path d="M1190 3155 c0 -22 4 -25 35 -25 31 0 35 3 35 25 0 22 -4 25 -35 25
-31 0 -35 -3 -35 -25z m50 -6 c0 -5 -7 -9 -15 -9 -15 0 -20 12 -9 23 8 8 24
-1 24 -14z"/>
<path d="M3180 3155 c0 -14 5 -25 10 -25 6 0 10 11 10 25 0 14 -4 25 -10 25
-5 0 -10 -11 -10 -25z"/>
<path d="M3330 3155 c0 -15 6 -25 14 -25 8 0 21 -3 30 -6 13 -5 16 1 16 25 0
28 -3 31 -30 31 -25 0 -30 -4 -30 -25z m35 -4 c-3 -6 -11 -8 -17 -5 -6 4 -5 9
3 15 16 10 23 4 14 -10z"/>
<path d="M3520 3156 c0 -19 6 -25 30 -28 27 -4 30 -2 30 24 0 24 -4 28 -30 28
-25 0 -30 -4 -30 -24z m30 -6 c0 -5 -2 -10 -4 -10 -3 0 -8 5 -11 10 -3 6 -1
10 4 10 6 0 11 -4 11 -10z"/>
<path d="M2580 3150 c0 -11 2 -20 4 -20 2 0 6 9 9 20 3 11 1 20 -4 20 -5 0 -9
-9 -9 -20z"/>
<path d="M1378 3111 l-33 -29 0 -166 c0 -129 -3 -166 -13 -166 -22 0 -62 -48
-62 -74 0 -21 -5 -25 -37 -28 l-38 -3 -3 -132 -3 -133 24 0 c24 0 25 2 20 43
-4 23 -9 44 -12 47 -12 10 -11 113 1 140 19 45 46 35 54 -20 14 -103 47 -292
70 -394 13 -59 22 -112 19 -116 -3 -5 -3 -27 1 -49 5 -34 10 -41 29 -41 17 0
25 -8 30 -27 11 -45 84 -171 112 -193 23 -18 40 -20 170 -20 139 0 143 1 133
19 -5 11 -10 31 -10 45 0 26 0 26 -89 26 l-89 0 -35 40 c-57 62 -112 188 -153
342 -20 79 -74 372 -74 404 l0 24 321 0 c229 0 327 -3 342 -12 27 -15 117 -27
117 -16 0 4 -16 16 -36 26 l-37 19 2 105 c1 70 -2 109 -9 113 -8 5 -10 -23 -8
-100 3 -103 2 -106 -17 -98 -11 4 -178 9 -372 10 -329 3 -353 2 -361 -14 -9
-19 29 -336 46 -385 9 -25 8 -28 -13 -28 -21 0 -23 4 -21 50 1 28 -1 50 -5 50
-6 0 -11 23 -35 150 -3 14 -7 57 -9 96 -5 80 12 120 46 111 11 -3 22 -1 25 4
3 5 9 7 14 4 5 -3 11 -1 15 5 3 5 -2 10 -13 10 -18 0 -19 8 -17 160 2 216 -10
205 227 208 l176 2 62 -46 c35 -25 72 -56 84 -68 40 -41 63 -48 96 -31 31 16
88 12 125 -8 11 -6 22 -12 25 -12 3 0 14 -6 26 -12 22 -13 67 -6 58 8 -10 16
98 31 132 19 13 -5 24 -6 24 -2 0 4 100 6 222 5 123 -1 249 -2 281 -3 36 0 56
-4 52 -10 -4 -6 1 -7 11 -3 14 5 16 2 11 -16 -4 -18 -3 -20 8 -11 11 9 16 6
25 -11 11 -19 10 -21 -4 -16 -15 6 -17 -3 -15 -78 1 -47 4 -84 6 -81 2 2 16
-2 30 -9 16 -8 55 -13 104 -12 91 2 92 1 88 -86 -3 -67 -10 -88 -20 -61 -11
28 -11 46 1 39 6 -3 10 -1 10 4 0 6 -5 11 -11 11 -6 0 -8 9 -4 20 3 11 2 20
-3 20 -5 0 -12 -51 -15 -112 -3 -62 -13 -150 -22 -196 -9 -45 -13 -87 -10 -92
3 -6 2 -10 -3 -10 -5 0 -16 -33 -26 -72 -26 -113 -46 -167 -64 -178 -9 -5 -12
-10 -5 -10 12 0 2 -43 -23 -92 -16 -31 -18 -62 -4 -53 6 4 8 11 5 16 -4 5 -1
9 4 9 6 0 11 -7 11 -15 0 -13 -14 -20 -23 -12 -1 1 -15 -8 -30 -20 -16 -12
-35 -19 -43 -16 -8 3 -14 0 -14 -6 0 -12 48 -10 68 3 14 9 15 -3 2 -24 -12
-20 -234 -27 -227 -7 2 7 23 13 48 13 87 2 95 4 80 13 -11 7 -1 24 43 80 31
39 56 73 56 77 -1 3 7 12 17 20 17 14 16 14 -4 4 -22 -10 -133 -145 -133 -161
0 -5 -27 -9 -60 -9 -59 0 -60 0 -79 -37 l-19 -38 122 3 c66 1 131 5 143 7 33
8 115 182 152 325 39 150 76 335 96 487 22 174 16 183 -122 183 l-73 0 0 88
c0 102 -10 123 -72 147 -37 14 -88 15 -375 13 -325 -3 -333 -3 -354 -24 l-21
-22 -62 29 c-68 32 -130 38 -156 14 -16 -14 -26 -9 -116 65 l-99 80 -187 0
-188 0 -32 -29z m1641 -273 l-1 -53 -9 40 c-5 21 -7 45 -5 52 11 26 16 12 15
-39z m7 -77 c0 -16 -3 -17 -14 -9 -12 10 -7 19 13 28 1 0 1 -9 1 -19z m-1556
-83 c0 -12 -38 -10 -45 2 -4 6 5 9 19 8 15 -1 26 -6 26 -10z m430 2 c0 -6 -26
-9 -62 -8 l-63 1 60 7 c33 4 61 7 63 8 1 1 2 -2 2 -8z m124 1 c11 -4 -9 -7
-50 -8 -62 0 -64 1 -24 7 25 4 47 7 50 8 3 0 14 -3 24 -7z m-631 -13 c-20 -10
-21 -17 -18 -77 4 -76 11 -129 24 -186 5 -22 15 -69 22 -105 7 -36 15 -69 20
-75 4 -5 9 -23 12 -40 5 -29 10 -45 24 -82 3 -10 7 -20 8 -23 1 -3 7 -18 14
-35 7 -16 13 -40 13 -52 0 -13 4 -20 9 -18 4 3 11 -5 15 -17 7 -22 15 -35 49
-70 11 -12 13 -17 5 -13 -8 5 -1 -5 15 -21 27 -25 39 -29 115 -34 77 -4 85 -7
85 -25 0 -19 -7 -20 -118 -20 -107 0 -120 2 -144 22 -21 18 -93 149 -93 168 0
3 -12 23 -26 44 -14 22 -28 54 -30 73 -3 18 -9 51 -14 72 -5 22 -7 43 -4 47 2
4 0 10 -6 14 -7 4 -6 13 1 27 9 17 13 18 21 7 7 -10 8 -5 4 16 -24 134 -57
387 -53 400 4 9 18 15 39 14 31 0 31 -1 11 -11z m165 5 c-10 -2 -26 -2 -35 0
-10 3 -2 5 17 5 19 0 27 -2 18 -5z m205 0 c-7 -2 -21 -2 -30 0 -10 3 -4 5 12
5 17 0 24 -2 18 -5z m1438 -183 l-9 -45 -1 46 c-1 25 2 49 6 53 12 12 13 -6 4
-54z m-14 -92 c-3 -8 -6 -5 -6 6 -1 11 2 17 5 13 3 -3 4 -12 1 -19z m-47 -229
c0 -5 -4 -9 -8 -9 -5 0 -9 7 -9 15 0 8 4 12 9 9 4 -3 8 -9 8 -15z m-20 -94 c0
-8 -4 -15 -10 -15 -5 0 -7 7 -4 15 4 8 8 15 10 15 2 0 4 -7 4 -15z m-1726 -42
c9 -18 13 -33 8 -33 -9 0 -32 44 -32 62 0 15 4 10 24 -29z m1707 -6 c-10 -9
-11 -8 -5 6 3 10 9 15 12 12 3 -3 0 -11 -7 -18z m-1 -22 c0 -3 -10 -25 -22
-48 -12 -23 -22 -45 -23 -49 0 -3 -4 -10 -8 -15 -5 -4 -5 10 -1 32 4 22 11 42
15 43 5 2 9 12 9 23 0 10 7 19 15 19 8 0 15 -2 15 -5z"/>
<path d="M1436 2028 c3 -5 10 -6 15 -3 13 9 11 12 -6 12 -8 0 -12 -4 -9 -9z"/>
<path d="M1521 1893 c7 -12 15 -20 18 -17 3 2 -3 12 -13 22 -17 16 -18 16 -5
-5z"/>
<path d="M1406 3058 c-13 -18 -16 -52 -16 -162 0 -145 7 -184 11 -58 1 39 6
72 11 72 5 0 4 10 -3 21 -14 27 -3 125 15 132 7 3 81 6 164 6 l152 2 0 -23 c0
-18 -2 -20 -10 -8 -14 22 -267 26 -291 4 -14 -13 -17 -35 -15 -154 0 -76 5
-142 9 -147 5 -4 133 -8 285 -8 l276 0 12 23 c7 15 14 20 18 13 4 -6 5 -14 3
-18 -3 -5 -1 -17 4 -28 4 -12 8 22 8 87 1 59 -3 109 -8 112 -4 3 -7 -12 -5
-34 4 -52 -18 -71 -41 -36 -10 15 -15 36 -12 48 5 19 -1 26 -31 40 -20 10 -74
45 -120 78 l-83 60 -159 0 c-153 0 -159 -1 -174 -22z m444 -124 l125 -91 3
-47 3 -46 -269 0 -270 0 2 73 c1 39 3 104 4 142 l2 70 137 -5 138 -5 125 -91z
m-30 67 c38 -29 59 -42 108 -67 17 -10 32 -25 32 -33 -1 -14 -2 -14 -13 0 -7
9 -18 14 -24 12 -7 -3 -13 1 -13 8 0 7 -3 9 -6 6 -4 -4 -14 2 -23 12 -9 10
-30 25 -47 34 -17 9 -34 23 -38 32 -3 9 -10 14 -15 11 -5 -3 -12 1 -15 10 -7
18 3 13 54 -25z m210 -190 c0 -17 -18 -21 -24 -6 -3 9 0 15 9 15 8 0 15 -4 15
-9z"/>
<path d="M1530 2928 c0 -6 3 -8 7 -5 3 4 43 -13 87 -37 154 -84 176 -94 208
-100 27 -5 24 -3 -13 12 -25 10 -97 46 -161 80 -63 34 -118 62 -122 62 -3 0
-6 -5 -6 -12z"/>
<path d="M1531 2884 c0 -11 3 -14 6 -6 3 7 2 16 -1 19 -3 4 -6 -2 -5 -13z"/>
<path d="M1190 3028 c0 -4 17 -8 37 -8 20 0 34 3 30 6 -9 9 -67 11 -67 2z"/>
<path d="M3330 2978 c0 -58 0 -58 30 -58 28 0 30 3 30 35 0 31 -3 35 -25 35
-16 0 -25 6 -25 15 0 18 36 20 43 3 3 -7 6 -4 6 7 1 16 -5 20 -29 20 -30 0
-30 0 -30 -57z m48 -21 c2 -12 -3 -17 -17 -17 -12 0 -21 6 -21 13 0 31 32 34
38 4z"/>
<path d="M3520 3010 c0 -16 7 -20 30 -20 42 0 42 34 0 37 -24 2 -30 -2 -30
-17z"/>
<path d="M1190 2960 c0 -28 3 -30 35 -30 32 0 35 2 35 30 0 28 -3 30 -35 30
-32 0 -35 -2 -35 -30z m42 2 c3 -11 0 -19 -8 -19 -15 0 -19 19 -7 30 9 10 10
9 15 -11z"/>
<path d="M3140 2955 c0 -32 2 -35 30 -35 28 0 30 3 30 35 0 32 -2 35 -30 35
-28 0 -30 -3 -30 -35z m50 -4 c0 -24 -34 -22 -38 2 -2 12 3 17 17 17 14 0 21
-6 21 -19z"/>
<path d="M2053 2953 c-7 -3 -13 -8 -13 -12 0 -19 222 -117 346 -154 65 -19
104 -39 181 -93 l62 -43 236 1 c130 0 238 -2 240 -4 6 -6 -21 -223 -40 -323
-22 -116 -62 -259 -84 -305 -14 -29 -16 -40 -6 -40 10 0 59 124 70 180 2 8 12
51 23 95 24 92 29 124 38 217 4 37 10 66 13 64 10 -6 5 104 -5 114 -5 5 -29
10 -54 13 -34 3 -28 4 25 5 69 2 129 20 75 23 -14 1 -29 0 -35 -1 -26 -5 -303
-5 -300 0 2 3 -8 6 -23 7 -24 2 -25 1 -7 -7 13 -6 -4 -8 -50 -6 -38 2 -77 0
-85 -4 -10 -5 -30 0 -55 16 -22 13 -34 24 -27 24 7 0 24 -7 37 -16 13 -9 29
-14 35 -12 7 2 -6 13 -27 24 -21 12 -60 33 -86 48 -27 15 -55 25 -63 22 -8 -3
-13 -2 -10 3 3 5 -43 27 -102 50 -59 23 -138 56 -177 73 -84 37 -116 46 -132
41z m62 -33 c3 -6 -1 -7 -9 -4 -18 7 -21 14 -7 14 6 0 13 -4 16 -10z m60 -28
c-3 -3 -11 0 -18 7 -9 10 -8 11 6 5 10 -3 15 -9 12 -12z m210 -72 c3 -5 -1
-10 -9 -10 -9 0 -16 5 -16 10 0 6 4 10 9 10 6 0 13 -4 16 -10z"/>
<path d="M2271 2925 c6 -6 136 -11 335 -13 l325 -3 -7 -77 c-5 -63 -4 -75 6
-65 9 8 14 41 14 90 l1 78 -342 0 c-228 0 -339 -3 -332 -10z"/>
<path d="M990 2897 c0 -32 2 -33 30 -29 27 4 30 2 30 -24 0 -23 2 -26 10 -14
5 8 10 34 10 58 l0 42 -40 0 c-39 0 -40 -1 -40 -33z m57 15 c20 -13 -2 -35
-26 -27 -18 5 -20 9 -10 21 13 16 19 17 36 6z"/>
<path d="M2308 2898 c10 -10 83 -38 173 -67 14 -5 46 -23 70 -40 76 -55 113
-66 224 -65 183 2 205 4 205 14 0 6 -61 10 -162 10 l-161 0 -91 54 c-103 62
-126 72 -210 91 -39 9 -55 10 -48 3z"/>
<path d="M3520 2876 c0 -21 6 -36 15 -40 28 -10 45 5 45 40 0 31 -3 34 -30 34
-27 0 -30 -3 -30 -34z m45 2 c-2 -25 -20 -35 -31 -17 -4 7 1 18 11 26 23 16
22 17 20 -9z"/>
<path d="M1190 2795 c0 -66 3 -85 14 -85 11 0 14 16 13 75 -1 44 2 75 8 75 6
0 11 -8 12 -17 2 -10 4 -28 6 -40 2 -13 6 -25 9 -29 8 -8 -2 -37 -16 -46 -6
-4 -1 -8 12 -8 20 0 22 5 22 50 0 28 -4 50 -8 50 -5 0 -7 14 -4 30 4 29 3 30
-32 30 l-36 0 0 -85z"/>
<path d="M2610 2818 c0 -5 64 -8 142 -8 78 0 139 2 137 4 -8 8 -279 11 -279 4z"/>
<path d="M3330 2816 c0 -8 13 -16 30 -18 24 -4 30 -1 30 14 0 13 -8 18 -30 18
-19 0 -30 -5 -30 -14z"/>
<path d="M3141 2788 c1 -18 2 -19 6 -5 6 23 36 18 45 -8 5 -17 6 -15 7 8 1 24
-3 27 -29 27 -25 0 -30 -4 -29 -22z"/>
<path d="M990 2745 c0 -19 5 -25 23 -25 18 0 19 2 7 10 -13 8 -13 10 1 10 19
0 29 -20 29 -57 0 -19 -4 -24 -16 -19 -9 3 -20 6 -25 6 -6 0 -7 9 -4 20 4 11
2 20 -4 20 -6 0 -11 -13 -11 -30 0 -27 3 -30 30 -30 27 0 30 -3 28 -30 -1 -20
-6 -26 -12 -20 -15 15 -46 12 -46 -5 0 -10 10 -15 34 -15 41 0 44 8 38 113
l-4 77 -34 0 c-30 0 -34 -3 -34 -25z"/>
<path d="M2140 2715 c0 -9 51 -25 195 -62 77 -19 152 -41 166 -48 15 -8 31
-10 39 -5 15 9 14 10 -208 64 -78 20 -151 40 -161 46 -22 11 -31 13 -31 5z"/>
<path d="M3331 2683 c-1 -41 0 -43 29 -43 26 0 30 4 30 26 0 23 -3 25 -24 20
-20 -5 -25 -2 -29 16 -2 13 -5 4 -6 -19z"/>
<path d="M3520 2680 c0 -27 3 -30 30 -30 27 0 30 3 30 30 0 27 -3 30 -30 30
-27 0 -30 -3 -30 -30z"/>
<path d="M1196 2677 c3 -10 9 -15 12 -12 3 3 0 11 -7 18 -10 9 -11 8 -5 -6z"/>
<path d="M1428 2593 c5 -21 7 -23 10 -9 2 10 0 22 -6 28 -6 6 -7 0 -4 -19z"/>
<path d="M2928 2613 c7 -3 16 -2 19 1 4 3 -2 6 -13 5 -11 0 -14 -3 -6 -6z"/>
<path d="M2365 2570 l-130 -6 125 -2 c69 -1 132 3 140 8 8 5 11 9 5 8 -5 -1
-68 -5 -140 -8z"/>
<path d="M3057 2573 c-7 -11 -20 -189 -14 -183 8 9 29 190 21 190 -2 0 -5 -3
-7 -7z"/>
<path d="M3330 2548 c0 -29 3 -33 30 -35 28 -2 30 0 30 32 0 32 -2 35 -30 35
-27 0 -30 -3 -30 -32z m40 -4 c0 -8 -7 -14 -15 -14 -8 0 -15 9 -15 20 0 13 5
18 15 14 8 -4 15 -12 15 -20z"/>
<path d="M3520 2555 c0 -21 5 -25 30 -25 25 0 30 4 30 25 0 21 -5 25 -30 25
-25 0 -30 -4 -30 -25z"/>
<path d="M1965 2560 c3 -5 36 -10 72 -10 83 0 79 5 -10 14 -46 5 -67 3 -62 -4z"/>
<path d="M1442 2530 c0 -19 2 -27 5 -17 2 9 2 25 0 35 -3 9 -5 1 -5 -18z"/>
<path d="M2183 2553 c9 -2 25 -2 35 0 9 3 1 5 -18 5 -19 0 -27 -2 -17 -5z"/>
<path d="M1050 2520 c0 -5 -13 -10 -30 -10 -25 0 -30 -4 -30 -25 0 -21 5 -25
30 -25 27 0 30 -3 30 -30 0 -16 5 -30 10 -30 6 0 10 28 10 65 0 37 -4 65 -10
65 -5 0 -10 -4 -10 -10z m0 -35 c0 -8 -4 -15 -10 -15 -5 0 -7 7 -4 15 4 8 8
15 10 15 2 0 4 -7 4 -15z"/>
<path d="M2460 2501 c0 -25 6 -27 13 -6 4 8 2 17 -3 20 -6 4 -10 -3 -10 -14z"/>
<path d="M1888 2502 l-288 -2 0 -34 c0 -21 6 -36 15 -40 30 -11 797 -7 811 5
18 15 18 53 0 68 -9 8 -53 11 -133 9 -65 -2 -247 -4 -405 -6z m-210 -41 c-1
-16 -6 -28 -12 -26 -62 13 -61 48 1 54 7 1 11 -11 11 -28z m728 4 c3 -23 -40
-26 -386 -23 -265 2 -325 5 -325 17 0 11 59 13 330 12 182 0 339 4 350 8 22 9
28 7 31 -14z"/>
<path d="M2498 2499 c18 -19 15 -57 -5 -63 -14 -4 -14 -4 2 -3 16 2 20 10 20
36 0 22 -6 36 -15 39 -12 4 -13 2 -2 -9z"/>
<path d="M2653 2493 c-20 -8 -15 -51 7 -63 28 -15 60 4 60 34 0 30 -31 44 -67
29z m44 -33 c-1 -12 -8 -20 -18 -20 -15 0 -18 12 -10 38 1 1 7 2 15 2 9 0 14
-9 13 -20z"/>
<path d="M1245 2470 c-3 -5 3 -10 15 -10 12 0 18 5 15 10 -3 6 -10 10 -15 10
-5 0 -12 -4 -15 -10z"/>
<path d="M3330 2430 c0 -27 3 -30 30 -30 27 0 30 3 30 30 0 27 -3 30 -30 30
-27 0 -30 -3 -30 -30z m48 -3 c2 -12 -3 -17 -17 -17 -15 0 -21 6 -21 21 0 25
33 22 38 -4z"/>
<path d="M1451 2434 c0 -11 3 -14 6 -6 3 7 2 16 -1 19 -3 4 -6 -2 -5 -13z"/>
<path d="M3520 2420 c0 -27 3 -30 30 -30 27 0 30 3 30 30 0 27 -3 30 -30 30
-27 0 -30 -3 -30 -30z m43 -1 c-3 -10 -11 -15 -18 -12 -17 6 -9 30 9 30 8 0
11 -8 9 -18z"/>
<path d="M3029 2348 c-3 -22 -1 -34 4 -29 5 5 7 21 5 37 -3 27 -4 26 -9 -8z"/>
<path d="M1607 2353 c-4 -3 -7 -21 -7 -39 0 -25 5 -35 23 -41 23 -8 905 -5
919 3 12 8 9 59 -4 72 -9 9 -127 12 -468 12 -251 0 -460 -3 -463 -7z m78 -20
c11 -6 59 -14 107 -18 76 -6 92 -5 115 11 36 24 121 26 147 5 18 -15 19 -15
13 1 -4 11 -2 15 6 12 7 -2 108 -5 226 -7 189 -2 215 -4 225 -19 5 -9 8 -19 6
-21 -10 -10 -863 -15 -886 -7 -38 15 -28 62 11 56 6 -1 19 -7 30 -13z"/>
<path d="M2850 2340 c-11 -11 -20 -24 -20 -30 0 -5 9 -19 20 -30 24 -24 54
-14 65 20 7 23 1 36 -25 50 -15 8 -24 6 -40 -10z m39 -23 c12 -15 5 -27 -16
-27 -7 0 -13 9 -13 20 0 23 13 26 29 7z"/>
<path d="M2644 2335 c-16 -40 23 -83 61 -69 16 7 27 47 19 68 -8 21 -72 22
-80 1z m60 -39 c-8 -21 -30 -21 -38 0 -10 25 -7 32 12 36 21 5 34 -14 26 -36z"/>
<path d="M923 2235 c0 -22 2 -30 4 -17 2 12 2 30 0 40 -3 9 -5 -1 -4 -23z"/>
<path d="M990 2240 c0 -28 3 -30 35 -30 32 0 35 2 35 30 0 28 -3 30 -35 30
-32 0 -35 -2 -35 -30z m57 -5 c0 -9 -10 -15 -24 -15 -14 0 -23 6 -23 15 0 9 9
15 23 15 14 0 24 -6 24 -15z"/>
<path d="M1183 2235 c0 -22 2 -30 4 -17 2 12 2 30 0 40 -3 9 -5 -1 -4 -23z"/>
<path d="M1236 2243 c13 -56 34 -60 34 -8 0 28 -4 35 -20 35 -17 0 -19 -4 -14
-27z"/>
<path d="M2996 2199 c-10 -40 -20 -83 -23 -94 -3 -11 -3 -17 1 -14 9 9 47 160
43 172 -2 6 -11 -23 -21 -64z"/>
<path d="M3202 2240 c0 -19 2 -27 5 -17 2 9 2 25 0 35 -3 9 -5 1 -5 -18z"/>
<path d="M3330 2240 c0 -27 3 -30 30 -30 27 0 30 3 30 30 0 27 -3 30 -30 30
-27 0 -30 -3 -30 -30z m40 6 c0 -8 -4 -18 -10 -21 -5 -3 -10 3 -10 14 0 12 5
21 10 21 6 0 10 -6 10 -14z"/>
<path d="M3520 2241 c0 -24 5 -29 30 -33 28 -4 30 -3 30 29 0 30 -3 33 -30 33
-26 0 -30 -3 -30 -29z m40 -1 c0 -5 -4 -10 -10 -10 -5 0 -10 5 -10 10 0 6 5
10 10 10 6 0 10 -4 10 -10z"/>
<path d="M1491 2244 c0 -11 3 -14 6 -6 3 7 2 16 -1 19 -3 4 -6 -2 -5 -13z"/>
<path d="M1600 2168 l0 -43 237 5 238 5 3 28 3 27 130 -2 c72 -1 133 -6 136
-11 13 -22 -25 -32 -140 -38 l-122 -6 135 1 135 1 3 31 3 31 -218 6 c-120 4
-291 7 -380 7 l-163 0 0 -42z m66 20 c5 -8 60 -9 206 -4 187 6 199 5 196 -11
-3 -14 -17 -19 -68 -23 -53 -5 -207 -5 -352 -1 -20 1 -28 6 -28 19 0 31 31 45
46 20z"/>
<path d="M2409 2191 c-19 -16 -22 -23 -13 -37 6 -10 17 -20 25 -22 9 -2 10 -1
2 5 -19 14 -19 41 2 57 11 9 17 16 14 16 -4 0 -17 -9 -30 -19z"/>
<path d="M2455 2166 c0 -19 3 -32 8 -29 4 2 7 17 7 34 0 16 -3 29 -7 29 -5 0
-8 -15 -8 -34z"/>
<path d="M1193 2055 l-2 -65 40 0 39 0 0 65 0 65 -38 0 -38 0 -1 -65z m55 7
c-2 -27 -15 -52 -27 -52 -6 0 -8 79 -2 87 0 1 8 0 16 -3 8 -4 14 -17 13 -32z"/>
<path d="M3520 2055 c0 -52 3 -65 16 -65 13 0 14 9 9 55 -5 41 -4 55 5 55 8 0
11 -11 8 -30 -3 -20 0 -30 9 -30 9 0 13 13 13 40 0 38 -2 40 -30 40 l-30 0 0
-65z"/>
<path d="M3332 2085 c0 -16 2 -22 5 -12 2 9 2 23 0 30 -3 6 -5 -1 -5 -18z"/>
<path d="M1619 2083 c-21 -5 -31 -41 -18 -65 9 -17 39 -18 648 -18 622 0 638
0 656 20 17 18 17 21 1 45 l-16 25 -628 -1 c-345 -1 -634 -3 -643 -6z m66 -23
c-4 -12 -1 -27 5 -35 10 -12 6 -14 -25 -11 -41 4 -61 18 -51 35 6 9 21 15 74
30 2 1 0 -8 -3 -19z m623 -3 c293 1 542 5 553 8 24 8 39 -22 18 -36 -18 -12
-1168 -9 -1175 3 -3 5 -3 16 0 24 5 12 13 14 38 7 18 -4 273 -7 566 -6z"/>
<path d="M3150 2079 c0 -9 -3 -31 -6 -48 -4 -18 -2 -31 4 -31 12 0 21 66 10
83 -6 9 -8 7 -8 -4z"/>
<path d="M2956 2068 c-3 -7 -9 -29 -15 -48 -9 -27 -9 -32 1 -22 6 6 13 18 14
26 1 7 5 23 9 35 3 11 4 21 0 21 -3 0 -7 -6 -9 -12z"/>
<path d="M3180 2021 c0 -11 4 -23 10 -26 6 -4 9 5 8 19 -3 30 -18 35 -18 7z"/>
<path d="M3330 2015 c0 -14 5 -25 10 -25 6 0 10 11 10 25 0 14 -4 25 -10 25
-5 0 -10 -11 -10 -25z"/>
<path d="M1050 2010 c0 -11 2 -20 4 -20 2 0 6 9 9 20 3 11 1 20 -4 20 -5 0 -9
-9 -9 -20z"/>
<path d="M3575 2011 c-3 -5 -1 -12 5 -16 5 -3 10 1 10 9 0 18 -6 21 -15 7z"/>
<path d="M2152 1955 c0 -16 2 -22 5 -12 2 9 2 23 0 30 -3 6 -5 -1 -5 -18z"/>
<path d="M2915 1950 c-4 -12 -5 -24 -2 -27 3 -2 8 5 12 17 4 12 5 24 2 27 -3
2 -8 -5 -12 -17z"/>
<path d="M2130 1909 c0 -5 5 -7 10 -4 6 3 10 8 10 11 0 2 -4 4 -10 4 -5 0 -10
-5 -10 -11z"/>
<path d="M1693 1903 c15 -2 37 -2 50 0 12 2 0 4 -28 4 -27 0 -38 -2 -22 -4z"/>
<path d="M1813 1903 c26 -2 67 -2 90 0 23 2 2 3 -48 3 -49 0 -68 -1 -42 -3z"/>
<path d="M2068 1903 c12 -2 30 -2 40 0 9 3 -1 5 -23 4 -22 0 -30 -2 -17 -4z"/>
<path d="M821 1832 c-1 -46 3 -71 9 -67 12 7 12 92 0 120 -6 14 -9 -3 -9 -53z"/>
<path d="M1213 1893 c9 -2 23 -2 30 0 6 3 -1 5 -18 5 -16 0 -22 -2 -12 -5z"/>
<path d="M2154 1875 c-14 -21 -14 -30 -4 -54 24 -58 100 -43 100 19 0 56 -66
80 -96 35z m63 -31 c-2 -13 0 -21 4 -18 5 3 9 1 9 -4 0 -5 -11 -12 -25 -15
-29 -5 -50 22 -40 52 4 13 12 17 31 13 21 -4 25 -9 21 -28z"/>
<path d="M2368 1875 c-34 -30 -35 -57 -4 -87 38 -37 39 -75 4 -118 -31 -40
-32 -81 0 -99 11 -6 18 -29 22 -70 3 -34 3 -61 0 -61 -14 0 -60 -53 -60 -70 0
-11 14 -35 30 -53 18 -21 30 -46 30 -62 0 -17 -11 -37 -30 -55 -17 -16 -30
-38 -30 -52 0 -13 14 -38 30 -56 17 -18 30 -42 30 -53 0 -12 7 -19 20 -19 11
0 20 5 20 11 0 6 14 24 30 39 24 22 30 36 30 69 0 33 -5 44 -30 63 -23 16 -30
30 -30 54 0 23 9 41 30 62 17 17 30 40 30 52 0 12 -13 35 -30 50 -25 24 -30
35 -30 77 0 40 5 54 25 73 31 29 33 75 4 107 -31 32 -32 77 -3 104 31 29 31
69 1 97 -30 28 -55 27 -89 -3z m73 -5 c25 -14 24 -41 -2 -73 -19 -25 -22 -26
-44 -11 -32 21 -38 43 -20 70 17 26 35 30 66 14z m-10 -197 c12 -15 12 -16 -1
-8 -13 8 -13 6 -1 -8 7 -9 17 -14 22 -11 6 3 8 -6 5 -21 -5 -28 -32 -65 -48
-65 -12 0 -49 63 -39 70 4 3 10 13 14 23 4 10 11 15 17 12 5 -3 10 1 10 9 0
20 4 20 21 -1z m5 -276 l22 -23 -24 -27 c-13 -15 -26 -27 -29 -27 -3 0 -16 12
-29 27 l-23 27 26 22 c32 29 31 29 57 1z m5 -227 l33 -30 -23 -24 c-20 -22
-67 -34 -55 -15 2 4 -4 14 -14 21 -20 15 -42 45 -24 34 6 -3 19 5 29 18 10 14
19 26 20 26 1 0 16 -13 34 -30z"/>
<path d="M2596 1885 c-35 -36 -8 -110 38 -103 18 3 21 10 21 58 0 48 -3 55
-21 58 -12 2 -29 -4 -38 -13z m44 -45 c0 -47 -24 -56 -40 -15 -12 32 -3 55 21
55 15 0 19 -7 19 -40z"/>
<path d="M1030 1820 c0 -51 19 -72 21 -22 0 15 2 37 5 50 3 15 -1 22 -11 22
-11 0 -15 -12 -15 -50z"/>
<path d="M2016 1863 c-3 -4 -6 -22 -6 -42 0 -34 2 -36 35 -37 36 -1 46 9 20
20 -8 3 -15 16 -15 30 0 23 -21 41 -34 29z"/>
<path d="M2670 1843 c0 -25 1 -26 16 -11 9 9 13 21 10 27 -13 20 -26 11 -26
-16z"/>
<path d="M2865 1859 c-4 -6 -17 -14 -29 -19 -14 -6 -16 -9 -5 -9 9 -1 24 8 34
19 10 11 15 20 12 20 -3 0 -9 -5 -12 -11z"/>
<path d="M3330 1818 c0 -36 2 -38 30 -38 27 0 30 3 30 34 0 30 -3 34 -30 38
-29 4 -30 3 -30 -34z m40 -3 c0 -8 -4 -15 -10 -15 -5 0 -10 7 -10 15 0 8 5 15
10 15 6 0 10 -7 10 -15z"/>
<path d="M3520 1818 c0 -37 2 -39 28 -36 23 3 27 8 30 40 3 35 2 37 -27 36
-29 -1 -31 -3 -31 -40z m35 2 c3 -5 1 -10 -4 -10 -6 0 -11 5 -11 10 0 6 2 10
4 10 3 0 8 -4 11 -10z"/>
<path d="M1217 1844 c-3 -3 -3 -12 0 -20 3 -8 0 -14 -6 -14 -6 0 -11 5 -11 12
0 6 -2 9 -5 7 -2 -3 -2 -15 2 -27 4 -17 13 -22 39 -22 32 0 34 2 34 35 0 30
-3 35 -23 35 -13 0 -26 -3 -30 -6z"/>
<path d="M1380 1815 c0 -32 2 -35 30 -35 28 0 30 3 30 35 0 32 -2 35 -30 35
-28 0 -30 -3 -30 -35z m40 0 c0 -8 -4 -15 -8 -15 -5 0 -9 7 -9 15 0 8 4 15 9
15 4 0 8 -7 8 -15z"/>
<path d="M1902 1823 c2 -20 9 -29 26 -31 14 -2 22 2 22 11 0 9 3 22 6 31 5 13
-1 16 -26 16 -28 0 -31 -3 -28 -27z"/>
<path d="M3150 1815 c0 -31 3 -35 25 -35 22 0 25 4 25 35 0 31 -3 35 -25 35
-22 0 -25 -4 -25 -35z"/>
<path d="M2768 1833 c7 -3 16 -2 19 1 4 3 -2 6 -13 5 -11 0 -14 -3 -6 -6z"/>
<path d="M1907 1695 c-67 -46 -72 -75 -22 -128 29 -30 35 -45 35 -80 0 -36 -5
-46 -35 -70 -42 -33 -40 -54 6 -102 16 -17 29 -41 29 -53 0 -13 6 -22 15 -22
8 0 15 7 15 16 0 9 18 33 40 54 50 47 51 72 5 113 -28 24 -35 38 -35 67 0 28
8 44 35 70 19 19 35 43 35 55 0 11 -19 40 -43 63 l-43 42 -37 -25z m51 -40
c12 -14 26 -25 32 -25 19 0 9 -25 -20 -47 l-28 -23 -32 30 -31 29 20 20 c12
12 21 26 21 31 0 17 15 11 38 -15z m13 -264 l31 -19 -37 -27 c-27 -21 -33 -30
-23 -37 10 -7 10 -9 -2 -5 -8 2 -15 9 -15 16 0 7 -11 21 -25 31 l-24 18 24 21
c31 25 32 25 71 2z"/>
<path d="M2139 1682 c-53 -53 -55 -77 -13 -120 44 -45 48 -105 9 -142 -34 -32
-32 -69 5 -105 17 -16 30 -39 30 -52 0 -14 6 -23 15 -23 9 0 15 9 15 23 0 13
14 36 30 52 17 16 30 39 30 53 0 14 -13 36 -30 52 -24 23 -30 36 -30 71 0 36
5 47 32 69 46 39 44 83 -7 127 -21 18 -41 33 -44 33 -3 -1 -22 -18 -42 -38z
m56 -1 c-3 -2 8 -19 25 -36 l29 -30 -34 -28 -35 -28 -30 28 -30 27 30 31 c17
17 28 34 25 36 -3 3 2 6 10 6 8 0 13 -3 10 -6z m-5 -251 c0 -5 -4 -10 -10 -10
-5 0 -10 5 -10 10 0 6 5 10 10 10 6 0 10 -4 10 -10z m27 -42 c16 -20 9 -39
-18 -56 -18 -12 -24 -11 -46 10 l-24 23 26 22 c29 25 44 26 62 1z"/>
<path d="M2620 1712 c0 -5 -11 -14 -25 -20 -13 -6 -31 -25 -40 -42 -18 -34
-12 -51 29 -89 21 -20 26 -34 26 -71 0 -40 -4 -49 -30 -68 -40 -30 -40 -69 -1
-106 16 -16 32 -39 36 -53 7 -31 29 -25 33 10 2 15 9 27 17 27 17 0 55 47 55
67 0 9 -17 31 -37 49 -32 30 -37 40 -34 72 2 26 13 47 37 72 39 41 42 57 14
93 -25 31 -80 72 -80 59z m25 -51 c3 -11 15 -23 26 -26 26 -9 24 -16 -16 -55
-19 -19 -35 -29 -35 -22 0 6 -10 21 -22 32 -22 20 -35 66 -16 54 5 -4 16 3 24
15 19 26 31 27 39 2z m14 -270 c24 -18 24 -20 8 -45 -22 -33 -37 -33 -67 -1
-23 24 -23 25 -5 45 22 25 33 25 64 1z"/>
<path d="M3520 1637 l0 -54 33 6 32 5 -30 6 c-24 6 -27 8 -13 14 9 4 22 5 28
1 6 -4 10 9 10 34 0 39 -2 41 -30 41 -30 0 -30 -1 -30 -53z"/>
<path d="M991 1618 c1 -18 3 -25 6 -15 5 21 43 23 43 2 0 -8 5 -15 10 -15 6 0
10 14 10 30 0 28 -3 30 -35 30 -33 0 -35 -2 -34 -32z"/>
<path d="M1194 1620 c-1 -19 4 -30 12 -30 8 0 11 6 8 15 -4 10 0 15 14 15 11
0 23 -8 25 -17 3 -10 5 -3 6 15 1 30 -1 32 -31 32 -30 0 -33 -3 -34 -30z"/>
<path d="M1380 1628 c0 -31 11 -44 38 -45 19 -2 22 3 22 33 0 31 -2 34 -30 34
-24 0 -30 -4 -30 -22z"/>
<path d="M1556 1634 c-9 -24 -7 -54 4 -54 6 0 10 16 10 35 0 38 -4 44 -14 19z"/>
<path d="M1622 1623 c2 -14 9 -28 16 -29 7 -1 8 0 2 3 -19 9 -10 23 15 23 16
0 25 6 25 15 0 10 -10 15 -31 15 -27 0 -30 -3 -27 -27z"/>
<path d="M1760 1615 c0 -32 2 -35 30 -35 28 0 30 3 30 35 0 32 -2 35 -30 35
-28 0 -30 -3 -30 -35z"/>
<path d="M2800 1615 c0 -33 2 -35 35 -35 33 0 34 1 33 35 -1 33 -3 35 -35 35
-31 0 -33 -2 -33 -35z m44 -6 c-8 -14 -24 -10 -24 6 0 9 6 12 15 9 8 -4 12
-10 9 -15z"/>
<path d="M2970 1615 c0 -32 2 -35 30 -35 28 0 30 3 30 35 0 32 -2 35 -30 35
-28 0 -30 -3 -30 -35z"/>
<path d="M3160 1615 c0 -31 3 -35 25 -35 22 0 25 4 25 35 0 31 -3 35 -25 35
-22 0 -25 -4 -25 -35z"/>
<path d="M3330 1618 c0 -29 3 -33 30 -35 28 -2 30 0 30 32 0 32 -2 35 -30 35
-27 0 -30 -3 -30 -32z m32 -10 c-9 -9 -12 -7 -12 12 0 19 3 21 12 12 9 -9 9
-15 0 -24z"/>
<path d="M1200 1490 c0 -5 5 -10 11 -10 5 0 7 5 4 10 -3 6 -8 10 -11 10 -2 0
-4 -4 -4 -10z"/>
<path d="M1340 1490 c0 -5 7 -10 15 -10 8 0 15 5 15 10 0 6 -7 10 -15 10 -8 0
-15 -4 -15 -10z"/>
<path d="M1556 1478 c-9 -36 -7 -96 4 -103 6 -4 10 18 10 59 0 69 -4 81 -14
44z"/>
<path d="M1762 1431 c3 -63 4 -66 28 -66 24 0 25 3 28 61 l3 62 -31 4 -31 5 3
-66z m38 -8 c0 -12 -4 -25 -10 -28 -6 -4 -10 11 -10 37 0 31 3 39 10 28 5 -8
10 -25 10 -37z"/>
<path d="M1882 1470 c0 -19 2 -27 5 -17 2 9 2 25 0 35 -3 9 -5 1 -5 -18z"/>
<path d="M2238 1475 c-3 -14 -1 -25 3 -25 5 0 9 11 9 25 0 14 -2 25 -4 25 -2
0 -6 -11 -8 -25z"/>
<path d="M2978 1443 c-4 -67 -2 -73 28 -73 23 0 24 3 24 59 0 54 -2 59 -24 63
-23 5 -25 2 -28 -49z m42 -14 c0 -17 -4 -28 -10 -24 -5 3 -10 17 -10 31 0 13
5 24 10 24 6 0 10 -14 10 -31z"/>
<path d="M1611 1430 c2 -59 3 -60 31 -60 28 0 28 1 28 60 l0 60 -31 0 -30 0 2
-60z m41 -17 c-9 -26 -22 -12 -18 20 6 44 7 45 15 17 4 -14 6 -31 3 -37z"/>
<path d="M2330 1471 c0 -11 5 -23 10 -26 6 -4 10 5 10 19 0 14 -4 26 -10 26
-5 0 -10 -9 -10 -19z"/>
<path d="M2472 1470 c0 -14 2 -19 5 -12 2 6 2 18 0 25 -3 6 -5 1 -5 -13z"/>
<path d="M2702 1465 c0 -16 2 -22 5 -12 2 9 2 23 0 30 -3 6 -5 -1 -5 -18z"/>
<path d="M2800 1430 l0 -60 33 0 32 0 3 60 2 60 -35 0 -35 0 0 -60z m48 3 c-3
-42 -28 -59 -28 -20 0 32 9 57 22 57 5 0 8 -17 6 -37z"/>
<path d="M1560 1289 c0 -12 8 -23 20 -26 11 -3 20 -14 20 -24 0 -11 5 -19 10
-19 6 0 10 20 10 45 0 43 -1 45 -30 45 -24 0 -30 -4 -30 -21z"/>
<path d="M3010 1263 c0 -54 14 -48 23 10 4 28 2 37 -9 37 -10 0 -14 -13 -14
-47z"/>
<path d="M3423 1260 c0 -30 2 -43 4 -27 2 15 2 39 0 55 -2 15 -4 2 -4 -28z"/>
<path d="M1190 1270 c0 -23 5 -30 19 -30 11 0 22 -8 24 -17 3 -10 5 3 6 30 1
44 -1 47 -24 47 -21 0 -25 -5 -25 -30z"/>
<path d="M1391 1273 c0 -11 3 -13 6 -5 7 17 23 15 23 -2 0 -8 -8 -17 -17 -19
-12 -3 -9 -5 8 -6 23 -1 26 2 21 24 -5 29 -42 36 -41 8z"/>
<path d="M2810 1253 c0 -30 3 -33 30 -33 26 0 30 3 30 29 0 24 -5 29 -30 33
-28 4 -30 3 -30 -29z m40 2 c0 -8 -7 -15 -15 -15 -16 0 -20 12 -8 23 11 12 23
8 23 -8z"/>
<path d="M3164 1260 c1 -21 6 -30 19 -30 12 0 17 8 17 30 0 23 -5 30 -19 30
-14 0 -18 -7 -17 -30z"/>
<path d="M920 1260 c0 -11 5 -20 10 -20 6 0 10 9 10 20 0 11 -4 20 -10 20 -5
0 -10 -9 -10 -20z"/>
<path d="M1790 1250 c0 -5 9 -10 20 -10 11 0 20 5 20 10 0 6 -9 10 -20 10 -11
0 -20 -4 -20 -10z"/>
<path d="M2178 1223 c7 -3 16 -2 19 1 4 3 -2 6 -13 5 -11 0 -14 -3 -6 -6z"/>
<path d="M1620 1073 c0 -39 2 -43 25 -43 23 0 25 4 25 43 0 38 -2 42 -25 42
-23 0 -25 -4 -25 -42z m35 -3 c-3 -5 -10 -10 -16 -10 -5 0 -9 5 -9 10 0 6 7
10 16 10 8 0 12 -4 9 -10z"/>
<path d="M2591 1078 c-1 -46 0 -48 28 -48 25 0 29 4 33 35 4 32 2 35 -23 35
-15 0 -30 6 -32 13 -3 6 -6 -9 -6 -35z m44 -8 c3 -6 -4 -10 -17 -10 -18 0 -20
2 -8 10 19 12 18 12 25 0z"/>
<path d="M2981 1098 c-13 -36 -2 -68 25 -68 33 0 35 47 2 53 l-23 4 23 2 c28
1 29 17 1 24 -14 4 -22 -1 -28 -15z"/>
<path d="M1382 1073 c3 -33 7 -38 31 -41 26 -3 27 -1 27 37 0 39 -1 41 -31 41
-29 0 -30 -2 -27 -37z m38 -4 c0 -5 -4 -9 -10 -9 -5 0 -10 7 -10 16 0 8 5 12
10 9 6 -3 10 -10 10 -16z"/>
<path d="M1780 1070 c0 -36 3 -40 25 -40 23 0 25 4 25 40 0 36 -2 40 -25 40
-22 0 -25 -4 -25 -40z m40 0 c0 -5 -4 -10 -10 -10 -5 0 -10 5 -10 10 0 6 5 10
10 10 6 0 10 -4 10 -10z"/>
<path d="M1990 1070 c0 -38 2 -40 30 -40 28 0 30 2 30 40 0 38 -2 40 -30 40
-28 0 -30 -2 -30 -40z m36 -7 c-10 -10 -19 5 -10 18 6 11 8 11 12 0 2 -7 1
-15 -2 -18z"/>
<path d="M2190 1099 c0 -6 7 -9 15 -6 8 4 17 2 20 -3 4 -6 -3 -10 -13 -10 -20
0 -36 -25 -26 -41 3 -5 18 -9 35 -9 27 0 29 2 29 40 0 38 -2 40 -30 40 -16 0
-30 -5 -30 -11z"/>
<path d="M2808 1076 c3 -29 8 -35 33 -38 28 -4 29 -3 29 34 0 36 -1 38 -33 38
-32 0 -33 -1 -29 -34z m46 -17 c-8 -14 -34 -11 -34 4 0 8 3 17 7 20 9 9 34
-13 27 -24z"/>
<path d="M3160 1069 c0 -36 2 -40 21 -37 18 2 22 10 23 41 1 32 -2 37 -21 37
-20 0 -23 -5 -23 -41z"/>
<path d="M3420 1089 c0 -11 5 -17 10 -14 6 3 10 13 10 21 0 8 -4 14 -10 14 -5
0 -10 -9 -10 -21z"/>
<path d="M1241 1084 c0 -11 3 -14 6 -6 3 7 2 16 -1 19 -3 4 -6 -2 -5 -13z"/>
<path d="M2430 913 c0 -14 6 -23 15 -23 9 0 15 9 15 23 0 14 -6 24 -15 24 -9
0 -15 -10 -15 -24z"/>
<path d="M2000 895 c0 -31 3 -35 25 -35 22 0 25 4 25 35 0 31 -3 35 -25 35
-22 0 -25 -4 -25 -35z m30 5 c0 -11 -4 -20 -10 -20 -5 0 -10 9 -10 20 0 11 5
20 10 20 6 0 10 -9 10 -20z"/>
<path d="M2190 895 c0 -32 3 -35 28 -35 25 0 28 4 30 35 2 33 1 35 -28 35 -28
0 -30 -3 -30 -35z m40 0 c0 -13 -6 -22 -15 -22 -9 0 -15 9 -15 22 0 13 6 22
15 22 9 0 15 -9 15 -22z"/>
<path d="M2810 895 c0 -32 2 -35 30 -35 28 0 30 3 30 35 0 32 -2 35 -30 35
-28 0 -30 -3 -30 -35z m40 0 c0 -26 -14 -33 -25 -15 -9 14 1 40 15 40 5 0 10
-11 10 -25z"/>
<path d="M2980 913 c0 -11 3 -14 8 -7 4 6 14 14 22 17 10 4 8 6 -7 6 -16 1
-23 -5 -23 -16z"/>
<path d="M1605 860 c3 -5 8 -10 11 -10 2 0 4 5 4 10 0 6 -5 10 -11 10 -5 0 -7
-4 -4 -10z"/>
<!-- <path d="M0 171 c0 -6 5 -13 11 -17 7 -4 8 -9 0 -17 -7 -7 -7 -16 0 -29 7 -12
6 -18 -1 -18 -7 0 -8 -6 0 -19 7 -13 7 -22 0 -26 -16 -10 -12 -45 5 -45 12 0
15 17 15 90 0 73 -3 90 -15 90 -8 0 -15 -4 -15 -9z"/>
<path d="M76 98 c-7 -28 9 -47 26 -30 8 8 8 15 -3 28 -9 12 -10 15 -1 10 6 -4
12 -2 12 3 0 21 -28 11 -34 -11z"/>
<path d="M132 88 c-6 -8 -7 -19 -3 -26 6 -10 11 -9 21 3 9 11 10 19 3 26 -7 7
-14 5 -21 -3z"/> -->
</g>
</svg>
